<svg width="49" height="48" viewBox="0 0 49 48" fill="none" xmlns="http://www.w3.org/2000/svg">
<g filter="url(#filter0_d_0_241)">
<g filter="url(#filter1_d_0_241)">
<circle cx="24.8799" cy="24" r="20" fill="white"/>
</g>
<path d="M13.8799 14C13.3276 14 12.8799 14.4477 12.8799 15C12.8799 15.5523 13.3276 16 13.8799 16V14ZM16.1021 15L17.0825 14.8029C16.9886 14.3359 16.5784 14 16.1021 14V15ZM15.5662 17.4076C15.675 17.9491 16.2022 18.2997 16.7437 18.1909C17.2851 18.082 17.6358 17.5548 17.5269 17.0134L15.5662 17.4076ZM18.3243 25.0525C17.772 25.0525 17.3243 25.5002 17.3243 26.0525C17.3243 26.6048 17.772 27.0525 18.3243 27.0525V25.0525ZM29.4354 26.0525V27.0525C29.8134 27.0525 30.1592 26.8394 30.3289 26.5016L29.4354 26.0525ZM33.8799 17.2105L34.7734 17.6596C34.9292 17.3496 34.9132 16.981 34.7311 16.6857C34.549 16.3903 34.2268 16.2105 33.8799 16.2105V17.2105ZM16.5465 16.2105C15.9943 16.2105 15.5465 16.6582 15.5465 17.2105C15.5465 17.7628 15.9943 18.2105 16.5465 18.2105V16.2105ZM17.3439 26.2496C17.4528 26.7911 17.98 27.1418 18.5214 27.0329C19.0629 26.924 19.4136 26.3969 19.3047 25.8554L17.3439 26.2496ZM17.5269 17.0134C17.4181 16.4719 16.8909 16.1213 16.3494 16.2301C15.808 16.339 15.4573 16.8662 15.5662 17.4076L17.5269 17.0134ZM19.0296 26.7615C19.4211 26.372 19.4228 25.7388 19.0333 25.3473C18.6438 24.9557 18.0106 24.9541 17.6191 25.3436L19.0296 26.7615ZM15.7765 28.5869L15.0713 27.8779L15.7765 28.5869ZM29.4354 31.4735C29.9877 31.4735 30.4354 31.0258 30.4354 30.4735C30.4354 29.9213 29.9877 29.4735 29.4354 29.4735V31.4735ZM29.4354 30.4735H28.4354C28.4354 30.7397 28.5415 30.9948 28.7302 31.1825L29.4354 30.4735ZM31.6577 32.684L30.9524 33.393C31.1398 33.5794 31.3934 33.684 31.6577 33.684V32.684ZM20.5465 32.684L19.6817 32.1821C19.5932 32.3345 19.5465 32.5077 19.5465 32.684H20.5465ZM20.5465 34.8945H19.5465C19.5465 35.0709 19.5932 35.244 19.6817 35.3965L20.5465 34.8945ZM13.8799 16H16.1021V14H13.8799V16ZM15.1217 15.1971L15.5662 17.4076L17.5269 17.0134L17.0825 14.8029L15.1217 15.1971ZM18.3243 27.0525H29.4354V25.0525H18.3243V27.0525ZM30.3289 26.5016L34.7734 17.6596L32.9864 16.7614L28.542 25.6034L30.3289 26.5016ZM33.8799 16.2105H16.5465V18.2105H33.8799V16.2105ZM19.3047 25.8554L17.5269 17.0134L15.5662 17.4076L17.3439 26.2496L19.3047 25.8554ZM17.6191 25.3436L15.0713 27.8779L16.4818 29.2958L19.0296 26.7615L17.6191 25.3436ZM15.0713 27.8779C13.731 29.2111 14.6909 31.4735 16.5621 31.4735V29.4735C16.522 29.4735 16.5054 29.4635 16.4972 29.4578C16.4846 29.4489 16.4693 29.4322 16.4588 29.407C16.4483 29.3817 16.4476 29.3602 16.4499 29.3471C16.4512 29.3395 16.4547 29.3228 16.4818 29.2958L15.0713 27.8779ZM16.5621 31.4735H29.4354V29.4735H16.5621V31.4735ZM30.4354 30.4735C30.4354 29.81 30.9777 29.263 31.6577 29.263V27.263C29.8831 27.263 28.4354 28.6954 28.4354 30.4735H30.4354ZM31.6577 29.263C32.3377 29.263 32.8799 29.81 32.8799 30.4735H34.8799C34.8799 28.6954 33.4323 27.263 31.6577 27.263V29.263ZM32.8799 30.4735C32.8799 31.1371 32.3377 31.684 31.6577 31.684V33.684C33.4323 33.684 34.8799 32.2516 34.8799 30.4735H32.8799ZM32.3629 31.9751L30.1407 29.7646L28.7302 31.1825L30.9524 33.393L32.3629 31.9751ZM21.4114 33.186C21.6866 32.7119 22.2509 32.4771 22.7887 32.6204L23.3037 30.6878C21.8984 30.3133 20.4123 30.9233 19.6817 32.1821L21.4114 33.186ZM22.7887 32.6204C23.3254 32.7635 23.6933 33.2451 23.6933 33.7893H25.6933C25.6933 32.3325 24.71 31.0627 23.3037 30.6878L22.7887 32.6204ZM23.6933 33.7893C23.6933 34.3335 23.3254 34.8151 22.7887 34.9582L23.3037 36.8907C24.71 36.5159 25.6933 35.2461 25.6933 33.7893H23.6933ZM22.7887 34.9582C22.2509 35.1015 21.6866 34.8667 21.4114 34.3926L19.6817 35.3965C20.4123 36.6553 21.8984 37.2653 23.3037 36.8907L22.7887 34.9582ZM21.5465 34.8945V32.684H19.5465V34.8945H21.5465Z" fill="#C7C7C7"/>
<circle cx="32.8799" cy="16" r="6" fill="#ACD9B2"/>
<path fill-rule="evenodd" clip-rule="evenodd" d="M35.4027 14.2423C35.1675 14.0319 34.806 14.0514 34.5956 14.2872L31.9979 17.1904L30.8585 16.0354C30.6368 15.8107 30.2747 15.8083 30.05 16.0301C29.8254 16.2519 29.8228 16.614 30.0446 16.8388L31.6115 18.4266C31.719 18.5356 31.8657 18.5966 32.0186 18.5966C32.0231 18.5966 32.0277 18.5966 32.0327 18.5966C32.1904 18.5928 32.3395 18.5238 32.4445 18.406L35.4477 15.0492C35.6581 14.8142 35.6378 14.4525 35.4027 14.2423Z" fill="white" stroke="white" stroke-width="0.8"/>
</g>
<defs>
<filter id="filter0_d_0_241" x="0.879883" y="0" width="48" height="48" filterUnits="userSpaceOnUse" color-interpolation-filters="sRGB">
<feFlood flood-opacity="0" result="BackgroundImageFix"/>
<feColorMatrix in="SourceAlpha" type="matrix" values="0 0 0 0 0 0 0 0 0 0 0 0 0 0 0 0 0 0 127 0" result="hardAlpha"/>
<feOffset/>
<feGaussianBlur stdDeviation="2"/>
<feColorMatrix type="matrix" values="0 0 0 0 0 0 0 0 0 0 0 0 0 0 0 0 0 0 0.15 0"/>
<feBlend mode="normal" in2="BackgroundImageFix" result="effect1_dropShadow_0_241"/>
<feBlend mode="normal" in="SourceGraphic" in2="effect1_dropShadow_0_241" result="shape"/>
</filter>
<filter id="filter1_d_0_241" x="0.879883" y="0" width="48" height="48" filterUnits="userSpaceOnUse" color-interpolation-filters="sRGB">
<feFlood flood-opacity="0" result="BackgroundImageFix"/>
<feColorMatrix in="SourceAlpha" type="matrix" values="0 0 0 0 0 0 0 0 0 0 0 0 0 0 0 0 0 0 127 0" result="hardAlpha"/>
<feOffset/>
<feGaussianBlur stdDeviation="2"/>
<feColorMatrix type="matrix" values="0 0 0 0 0 0 0 0 0 0 0 0 0 0 0 0 0 0 0.01 0"/>
<feBlend mode="normal" in2="BackgroundImageFix" result="effect1_dropShadow_0_241"/>
<feBlend mode="normal" in="SourceGraphic" in2="effect1_dropShadow_0_241" result="shape"/>
</filter>
</defs>
</svg>
